<?xml version="1.0" encoding="UTF-8"?>
<svg version="1.1" xmlns="http://www.w3.org/2000/svg" width="80" height="80">
<path d="M0 0 C0.77601562 0.42410156 1.55203125 0.84820313 2.3515625 1.28515625 C10.97854062 6.4642284 17.75553187 15.10769398 20.53051758 24.86547852 C22.68545339 34.66298441 22.04691752 46.2897436 17 55 C16.57589844 55.77601562 16.15179688 56.55203125 15.71484375 57.3515625 C10.5357716 65.97854062 1.89230602 72.75553187 -7.86547852 75.53051758 C-17.66298441 77.68545339 -29.2897436 77.04691752 -38 72 C-38.77601562 71.57589844 -39.55203125 71.15179688 -40.3515625 70.71484375 C-48.97854062 65.5357716 -55.75553187 56.89230602 -58.53051758 47.13452148 C-60.68545339 37.33701559 -60.04691752 25.7102564 -55 17 C-54.57589844 16.22398438 -54.15179688 15.44796875 -53.71484375 14.6484375 C-48.5357716 6.02145938 -39.89230602 -0.75553187 -30.13452148 -3.53051758 C-20.33701559 -5.68545339 -8.7102564 -5.04691752 0 0 Z " fill="#E2EDEF" transform="translate(59,4)"/>
<path d="M0 0 C0.7321875 0.38542969 1.464375 0.77085938 2.21875 1.16796875 C8.52232556 4.41963713 14.55722525 4.60073123 21.53125 4.91796875 C22.85672852 4.98274414 22.85672852 4.98274414 24.20898438 5.04882812 C26.37874623 5.15438411 28.5487291 5.25537946 30.71875 5.35546875 C30.38875 6.67546875 30.05875 7.99546875 29.71875 9.35546875 C29.05875 9.35546875 28.39875 9.35546875 27.71875 9.35546875 C27.96431641 10.36673828 27.96431641 10.36673828 28.21484375 11.3984375 C28.8062858 14.86914781 28.81414046 18.14868999 28.78125 21.66796875 C28.77222656 22.92222656 28.76320312 24.17648438 28.75390625 25.46875 C28.74230469 26.42136719 28.73070312 27.37398437 28.71875 28.35546875 C29.11964844 27.77539062 29.52054688 27.1953125 29.93359375 26.59765625 C35.10048916 19.49756867 41.1742283 13.97626742 49.71875 11.35546875 C52.72353613 11.07447985 55.70286341 11.07609323 58.71875 11.10546875 C59.5128125 11.09773438 60.306875 11.09 61.125 11.08203125 C65.43748638 11.0964062 68.79003619 11.35942867 72.71875 13.35546875 C70.49272918 24.04500624 64.81859471 32.95724775 55.734375 39.14453125 C44.88490417 45.66262419 33.11337351 47.43392528 20.62890625 44.671875 C18.17479206 43.73752821 15.9896348 42.67127023 13.71875 41.35546875 C12.94273438 40.93136719 12.16671875 40.50726563 11.3671875 40.0703125 C2.5599292 34.78301195 -3.66259154 26.27990578 -6.87890625 16.546875 C-7.42998361 13.545376 -7.37423798 10.65426634 -7.34375 7.60546875 C-7.33472656 6.435 -7.32570313 5.26453125 -7.31640625 4.05859375 C-7.30480469 3.1665625 -7.29320312 2.27453125 -7.28125 1.35546875 C-2.92998924 -0.8278223 -2.92998924 -0.8278223 0 0 Z " fill="#E2EDEF" transform="translate(7.28125,34.64453125)"/>
<path d="M0 0 C1.8359375 1.66796875 1.8359375 1.66796875 3 3 C2.35160156 2.84402344 1.70320313 2.68804687 1.03515625 2.52734375 C-9.48907996 0.6988085 -20.10453562 0.66145706 -29.5078125 6.14453125 C-33.31981602 8.98262165 -36.12931745 12.24972112 -39 16 C-39.98389262 17.01585201 -40.97901755 18.02143225 -42 19 C-43.20611096 5.83328866 -43.20611096 5.83328866 -40.53515625 1.7734375 C-38.42847687 0.14649699 -36.44107796 -0.94329176 -34 -2 C-33.31421875 -2.33257812 -32.6284375 -2.66515625 -31.921875 -3.0078125 C-21.13853822 -7.44096207 -9.93678505 -5.59929951 0 0 Z " fill="#3D6A6B" transform="translate(77,45)"/>
<path d="M0 0 C0.33 0 0.66 0 1 0 C2.36827723 14.22332629 2.36827723 14.22332629 -0.79296875 18.328125 C-3.1693171 19.90439627 -5.32636699 21.01067402 -8 22 C-8.94101562 22.36738281 -9.88203125 22.73476563 -10.8515625 23.11328125 C-19.88304977 25.65688871 -30.43183523 24.81339177 -39 21 C-41.16069286 19.78705572 -43.02368518 18.50824026 -45 17 C-43 16 -43 16 -40.125 16.9375 C-29.2114502 20.22062183 -19.58129673 17.29064837 -9.75 12.375 C-6.25194569 9.35395309 -3.94000475 5.89952161 -1.41796875 2.046875 C-0.95003906 1.37140625 -0.48210938 0.6959375 0 0 Z " fill="#285455" transform="translate(48,16)"/>
<path d="M0 0 C2.12951832 0.5043596 4.25248327 1.02963188 6.375 1.5625 C5.41400391 2.16384766 5.41400391 2.16384766 4.43359375 2.77734375 C-1.2750735 6.52923981 -5.39078239 10.26297919 -9.34765625 15.83984375 C-9.76917969 16.40832031 -10.19070312 16.97679688 -10.625 17.5625 C-10.955 17.5625 -11.285 17.5625 -11.625 17.5625 C-11.7059723 15.12433415 -11.76546972 12.68885616 -11.8125 10.25 C-11.83763672 9.55970703 -11.86277344 8.86941406 -11.88867188 8.15820312 C-11.96255286 3.06041521 -11.96255286 3.06041521 -10.29296875 0.59765625 C-7.07502564 -1.39942788 -3.58231722 -0.59705287 0 0 Z " fill="#144544" transform="translate(46.625,46.4375)"/>
<path d="M0 0 C1.175625 0.33 2.35125 0.66 3.5625 1 C10.29585602 2.53227012 17.13917106 2.16270741 24 2 C24 2.66 24 3.32 24 4 C24.86625 3.4740625 24.86625 3.4740625 25.75 2.9375 C28.35801776 1.85082593 29.39417629 2.06934867 32 3 C31.34 3 30.68 3 30 3 C29.67 4.32 29.34 5.64 29 7 C29.66 7.33 30.32 7.66 31 8 C19.57256512 8.41138766 9.33346299 8.36852341 0 1 C0 0.67 0 0.34 0 0 Z " fill="#345F61" transform="translate(3,32)"/>
<path d="M0 0 C9.14803051 -0.97242844 15.15103405 1.39746499 23 6 C19.66085874 7.11304709 18.42071007 6.63774645 15.17578125 5.609375 C11.62274449 4.61426955 7.99165142 4.0717101 4.35546875 3.46484375 C2 3 2 3 0 2 C0 1.34 0 0.68 0 0 Z " fill="#2E5F60" transform="translate(57,41)"/>
<path d="M0 0 C0.33 0 0.66 0 1 0 C1 4.95 1 9.9 1 15 C-0.98 15 -2.96 15 -5 15 C-4.72569093 8.82804592 -3.96185965 4.82851645 0 0 Z " fill="#113737" transform="translate(48,16)"/>
<path d="M0 0 C0.66 0.33 1.32 0.66 2 1 C2 2.32 2 3.64 2 5 C1.34 5 0.68 5 0 5 C0 5.99 0 6.98 0 8 C0.61875 7.79375 1.2375 7.5875 1.875 7.375 C2.57625 7.25125 3.2775 7.1275 4 7 C4.66 7.66 5.32 8.32 6 9 C4.375 10.625 4.375 10.625 2 12 C-1.25 11.1875 -1.25 11.1875 -4 10 C-4 5.75354935 -2.18249194 3.61475228 0 0 Z " fill="#1D4E4E" transform="translate(43,23)"/>
<path d="M0 0 C-0.66 0 -1.32 0 -2 0 C-2.33 1.32 -2.66 2.64 -3 4 C-2.34 4.33 -1.68 4.66 -1 5 C-5.95 5 -10.9 5 -16 5 C-13.52873606 3.35249071 -11.2390557 2.06276295 -8.5625 0.8125 C-7.80066406 0.44769531 -7.03882813 0.08289062 -6.25390625 -0.29296875 C-3.71011262 -1.09093521 -2.47544187 -0.8852947 0 0 Z " fill="#3A6B6D" transform="translate(35,35)"/>
<path d="M0 0 C0.33 0 0.66 0 1 0 C1.33 2.97 1.66 5.94 2 9 C2.33 7.35 2.66 5.7 3 4 C4.98 4 6.96 4 9 4 C8.06558465 5.27310312 7.12732889 6.543388 6.1875 7.8125 C5.66542969 8.52019531 5.14335938 9.22789063 4.60546875 9.95703125 C3 12 3 12 0 15 C0 10.05 0 5.1 0 0 Z " fill="#254646" transform="translate(35,49)"/>
<path d="M0 0 C2.12801223 0.42260525 4.25238452 0.86357373 6.375 1.3125 C7.55835938 1.55613281 8.74171875 1.79976562 9.9609375 2.05078125 C13 3 13 3 15 6 C8.6902455 6.65726609 4.95810778 4.92785162 0 1 C0 0.67 0 0.34 0 0 Z " fill="#325153" transform="translate(3,32)"/>
<path d="M0 0 C5.70709064 0.46588495 9.15939723 1.93757784 14 5 C10.51523541 6.1615882 9.32751629 5.77669581 5.875 4.75 C4.98554687 4.49734375 4.09609375 4.2446875 3.1796875 3.984375 C2.10074219 3.49710938 2.10074219 3.49710938 1 3 C0.67 2.01 0.34 1.02 0 0 Z " fill="#294B4D" transform="translate(66,42)"/>
<path d="M0 0 C-2.125 2.5625 -2.125 2.5625 -5 5 C-8.3125 4.8125 -8.3125 4.8125 -11 4 C-7.64191281 0.32209498 -4.88401581 -0.13200043 0 0 Z " fill="#265352" transform="translate(51,42)"/>
<path d="M0 0 C2 3 2 3 1.8125 5.5 C1 8 1 8 -2 11 C-2 7.7 -2 4.4 -2 1 C-1.34 0.67 -0.68 0.34 0 0 Z " fill="#0A3636" transform="translate(38,48)"/>
<path d="M0 0 C1.36125 0.12375 1.36125 0.12375 2.75 0.25 C0.20543849 3.21865509 -2.73994665 4.6119751 -6.25 6.25 C-6.58 5.59 -6.91 4.93 -7.25 4.25 C-4.83923194 1.28290085 -3.90322061 0.30024774 0 0 Z " fill="#214B4B" transform="translate(50.25,46.75)"/>
<path d="M0 0 C0.33 0 0.66 0 1 0 C1.08089542 2.77141717 1.14044062 5.54047819 1.1875 8.3125 C1.22520508 9.49102539 1.22520508 9.49102539 1.26367188 10.69335938 C1.27333984 11.45068359 1.28300781 12.20800781 1.29296875 12.98828125 C1.3086792 13.68477783 1.32438965 14.38127441 1.34057617 15.09887695 C0.90238443 17.54489783 -0.13437358 18.42702086 -2 20 C-2.66 19.34 -3.32 18.68 -4 18 C-3.01 17.34 -2.02 16.68 -1 16 C-0.61605333 13.22737745 -0.39657752 10.65676472 -0.3125 7.875 C-0.27833984 7.12089844 -0.24417969 6.36679687 -0.20898438 5.58984375 C-0.12645722 3.72708799 -0.06155289 1.86356674 0 0 Z " fill="#D0E8EA" transform="translate(49,16)"/>
<path d="M0 0 C0.99 0.33 1.98 0.66 3 1 C-0.69172595 4.53790403 -4.09390595 4.59115883 -9 5 C-8.67 4.01 -8.34 3.02 -8 2 C-7.01 2.33 -6.02 2.66 -5 3 C-4.175 2.505 -3.35 2.01 -2.5 1.5 C-1.675 1.005 -0.85 0.51 0 0 Z " fill="#2F595B" transform="translate(41,34)"/>
<path d="M0 0 C0.66 0.33 1.32 0.66 2 1 C1.67 3.97 1.34 6.94 1 10 C0.01 10 -0.98 10 -2 10 C-1.85950482 8.52031676 -1.71245174 7.04125484 -1.5625 5.5625 C-1.48128906 4.73878906 -1.40007813 3.91507813 -1.31640625 3.06640625 C-1 1 -1 1 0 0 Z " fill="#104341" transform="translate(45,21)"/>
<path d="M0 0 C0.78375 0.04125 1.5675 0.0825 2.375 0.125 C2.375 1.775 2.375 3.425 2.375 5.125 C0.065 4.135 -2.245 3.145 -4.625 2.125 C-2.625 0.125 -2.625 0.125 0 0 Z " fill="#D2E5E8" transform="translate(77.625,41.875)"/>
<path d="M0 0 C0.99 0.66 1.98 1.32 3 2 C1.1875 3.5625 1.1875 3.5625 -1 5 C-1.99 4.67 -2.98 4.34 -4 4 C-3.67 3.01 -3.34 2.02 -3 1 C-2.01 0.67 -1.02 0.34 0 0 Z " fill="#1C4645" transform="translate(46,30)"/>
</svg>
