<?xml version="1.0" encoding="UTF-8"?>
<svg version="1.1" xmlns="http://www.w3.org/2000/svg" width="200" height="200">
<path d="M0 0 C0.875 2.25 0.875 2.25 1 4 C-0.2375 3.731875 -1.475 3.46375 -2.75 3.1875 C-3.5853125 3.00832031 -4.420625 2.82914063 -5.28125 2.64453125 C-8 2 -8 2 -10.53125 1.19921875 C-27.10489648 -3.82526316 -44.37774224 -2.0432842 -59.6875 5.75 C-71.52114914 12.6128285 -80.65051324 21.70824091 -87.7734375 33.34765625 C-88.17820312 33.89292969 -88.58296875 34.43820313 -89 35 C-89.66 35 -90.32 35 -91 35 C-92.29666666 29.21932963 -92.33888347 23.52838925 -92.4375 17.625 C-92.48326172 16.51382813 -92.52902344 15.40265625 -92.57617188 14.2578125 C-92.70203187 5.06456076 -92.70203187 5.06456076 -89.375 0.97265625 C-65.98928439 -21.54104963 -24.58062732 -18.76080232 0 0 Z " fill="#2D5B5C" transform="translate(177,114)"/>
<path d="M0 0 C0.99 0.495 0.99 0.495 2 1 C2.22421184 5.26807362 2.38654863 9.53294776 2.49438477 13.80517578 C2.53936928 15.25467677 2.60058725 16.70377563 2.67895508 18.15185547 C3.30773523 30.07813007 3.30773523 30.07813007 0.19604492 34.65112305 C-2.09245678 36.74623024 -4.34932369 38.39374121 -7 40 C-7.61367432 40.39783691 -8.22734863 40.79567383 -8.85961914 41.20556641 C-26.17518339 51.65246221 -46.73121907 52.32634087 -66.13671875 48.18359375 C-75.2721242 45.64558982 -84.41961403 40.63407065 -92 35 C-92.495 33.515 -92.495 33.515 -93 32 C-88.36773532 32.55076989 -84.32592626 33.51462272 -79.9375 35.0625 C-61.41630482 40.49010158 -42.48350173 37.22245868 -25.7734375 28.23046875 C-14.55980535 21.84065592 -7.51661792 11.86736283 -1 1 C-0.67 0.67 -0.34 0.34 0 0 Z " fill="#275757" transform="translate(113,51)"/>
<path d="M0 0 C4.63226468 0.55076989 8.67407374 1.51462272 13.0625 3.0625 C25.50848726 6.70977327 40.18377804 6.65999687 52.5625 2.75390625 C55.35086701 1.89147863 58.11659338 1.43167279 61 1 C58.93672968 5.8634229 55.38398753 8.25085754 51 11 C49.0187415 11.72045764 47.02330411 12.40781343 45 13 C44.67 13.66 44.34 14.32 44 15 C46.85170402 15.75486283 48.82371329 16.03205213 51.75 15.5 C55.97558519 14.84990997 59.79396182 15.39246115 64 16 C64 15.34 64 14.68 64 14 C66.64 14 69.28 14 72 14 C61.09627849 21.26914767 43.01774103 18.88852506 30.6875 17 C20.01614063 14.72184463 9.7447142 9.49944974 1 3 C0.67 2.01 0.34 1.02 0 0 Z " fill="#2C5D5E" transform="translate(20,83)"/>
<path d="M0 0 C2.65625 2.02734375 2.65625 2.02734375 3.53125 4.27734375 C3.5725 4.85484375 3.61375 5.43234375 3.65625 6.02734375 C2.41875 5.75921875 1.18125 5.49109375 -0.09375 5.21484375 C-0.9290625 5.03566406 -1.764375 4.85648438 -2.625 4.671875 C-5.34375 4.02734375 -5.34375 4.02734375 -7.875 3.2265625 C-19.72806725 -0.36682427 -33.18232055 -0.02997856 -45.34375 2.02734375 C-44.68375 1.69734375 -44.02375 1.36734375 -43.34375 1.02734375 C-43.34375 0.36734375 -43.34375 -0.29265625 -43.34375 -0.97265625 C-37.84358036 -2.27532801 -32.87342941 -1.68299056 -27.34375 -0.97265625 C-31.08390431 -5.91995247 -31.08390431 -5.91995247 -36.34375 -8.97265625 C-37.00375 -9.30265625 -37.66375 -9.63265625 -38.34375 -9.97265625 C-40.3418551 -10.06915564 -42.3433218 -10.10246497 -44.34375 -10.09765625 C-45.41625 -10.10023437 -46.48875 -10.1028125 -47.59375 -10.10546875 C-50.30557052 -10.15989035 -50.30557052 -10.15989035 -52.34375 -8.97265625 C-54.6837917 -9.25507508 -57.01879723 -9.58516412 -59.34375 -9.97265625 C-59.34375 -10.30265625 -59.34375 -10.63265625 -59.34375 -10.97265625 C-38.17321413 -15.69245851 -18.22551535 -10.75220239 0 0 Z " fill="#4F7677" transform="translate(174.34375,111.97265625)"/>
<path d="M0 0 C0 0.66 0 1.32 0 2 C2.85170402 2.75486283 4.82371329 3.03205213 7.75 2.5 C11.97558519 1.84990997 15.79396182 2.39246115 20 3 C20 2.34 20 1.68 20 1 C22.64 1 25.28 1 28 1 C21.37910298 5.41393135 13.42352828 5.32949676 5.6875 5.25 C4.77266846 5.24613281 3.85783691 5.24226563 2.9152832 5.23828125 C-3.89262941 5.15153323 -10.3515382 4.5416723 -17 3 C-17 2.67 -17 2.34 -17 2 C-14.72954771 1.66408104 -12.45862367 1.33134935 -10.1875 1 C-8.29064453 0.7215625 -8.29064453 0.7215625 -6.35546875 0.4375 C-3 0 -3 0 0 0 Z " fill="#7B9C9E" transform="translate(64,96)"/>
<path d="M0 0 C4.98844309 0.6099126 9.60155346 1.63474435 14.4375 3.0625 C16.29181641 3.60583984 16.29181641 3.60583984 18.18359375 4.16015625 C19.11300781 4.43730469 20.04242188 4.71445313 21 5 C21 5.33 21 5.66 21 6 C19.01432292 6.48828125 17.02864583 6.9765625 15.04296875 7.46484375 C13.34316798 7.91010705 11.66698046 8.44433985 10 9 C7.7734375 7.890625 7.7734375 7.890625 5.375 6.25 C4.57835937 5.71890625 3.78171875 5.1878125 2.9609375 4.640625 C1 3 1 3 0 0 Z " fill="#577778" transform="translate(20,83)"/>
<path d="M0 0 C3.289138 1.13064119 6.25592608 2.62486687 9.25 4.375 C9.93578125 4.77460937 10.6215625 5.17421875 11.328125 5.5859375 C13.33994311 7.28752197 13.62899407 8.43569434 14 11 C8.88634986 9.9318153 3.92772031 8.76892524 -1 7 C-0.34 6.34 0.32 5.68 1 5 C0.67958603 2.39719432 0.67958603 2.39719432 0 0 Z " fill="#527171" transform="translate(164,107)"/>
<path d="M0 0 C4.29 0 8.58 0 13 0 C12.34 0.66 11.68 1.32 11 2 C11.99 2.66 12.98 3.32 14 4 C13.67 4.99 13.34 5.98 13 7 C8.83855932 7.19355538 5.64880774 7.12847118 2 5 C1.34 3.35 0.68 1.7 0 0 Z " fill="#1C4B4B" transform="translate(37,90)"/>
<path d="M0 0 C-6.04852394 3.9747443 -10.95947863 4.11933087 -18 4 C-18 3.34 -18 2.68 -18 2 C-22.29 2 -26.58 2 -31 2 C-31 1.67 -31 1.34 -31 1 C-30.35973877 0.97494385 -29.71947754 0.9498877 -29.05981445 0.92407227 C-26.14386274 0.8076454 -23.2281971 0.68513133 -20.3125 0.5625 C-19.30509766 0.52318359 -18.29769531 0.48386719 -17.25976562 0.44335938 C-16.28330078 0.40146484 -15.30683594 0.35957031 -14.30078125 0.31640625 C-13.40528564 0.27974854 -12.50979004 0.24309082 -11.5871582 0.20532227 C-8.96829784 0.05015702 -8.96829784 0.05015702 -6.31323242 -0.54711914 C-3.83047098 -1.03319011 -2.37487147 -0.79162382 0 0 Z " fill="#6F9496" transform="translate(72,88)"/>
<path d="M0 0 C3 0 3 0 6 2 C6 2.33 6 2.66 6 3 C7.98 3 9.96 3 12 3 C9.5129261 4.65804926 7.02682498 6.19874478 4.4375 7.6875 C3.65246094 8.14511719 2.86742188 8.60273437 2.05859375 9.07421875 C1.37925781 9.37972656 0.69992188 9.68523437 0 10 C-0.66 9.67 -1.32 9.34 -2 9 C-1.649375 8.401875 -1.29875 7.80375 -0.9375 7.1875 C0.33304698 4.89186786 0.33304698 4.89186786 -1 2 C-0.67 1.34 -0.34 0.68 0 0 Z " fill="#487071" transform="translate(114,112)"/>
<path d="M0 0 C0.33 0 0.66 0 1 0 C1 4.62 1 9.24 1 14 C0.01 14.33 -0.98 14.66 -2 15 C-2.33 14.01 -2.66 13.02 -3 12 C-3.66 11.67 -4.32 11.34 -5 11 C-1.85714286 3.57142857 -1.85714286 3.57142857 0 0 Z " fill="#0A3835" transform="translate(113,51)"/>
<path d="M0 0 C0 0.66 0 1.32 0 2 C0.99 2.66 1.98 3.32 3 4 C0.79173622 4.02722517 -1.41662638 4.04649729 -3.625 4.0625 C-4.85476562 4.07410156 -6.08453125 4.08570312 -7.3515625 4.09765625 C-10.67723791 4.00863924 -13.74047588 3.63686087 -17 3 C-17 2.67 -17 2.34 -17 2 C-14.72954771 1.66408104 -12.45862367 1.33134935 -10.1875 1 C-8.29064453 0.7215625 -8.29064453 0.7215625 -6.35546875 0.4375 C-3 0 -3 0 0 0 Z " fill="#598487" transform="translate(64,96)"/>
<path d="M0 0 C1.33901367 0.07250977 1.33901367 0.07250977 2.70507812 0.14648438 C4.09823242 0.2305957 4.09823242 0.2305957 5.51953125 0.31640625 C6.93008789 0.3947168 6.93008789 0.3947168 8.36914062 0.47460938 C10.69044626 0.60422543 13.01131534 0.73918806 15.33203125 0.87890625 C15.33203125 1.20890625 15.33203125 1.53890625 15.33203125 1.87890625 C14.11386719 1.93949219 12.89570313 2.00007813 11.640625 2.0625 C10.01691848 2.14697028 8.39322103 2.23161497 6.76953125 2.31640625 C5.56973633 2.37538086 5.56973633 2.37538086 4.34570312 2.43554688 C-0.38168381 2.68638781 -4.99273776 3.13212439 -9.66796875 3.87890625 C-9.00796875 3.54890625 -8.34796875 3.21890625 -7.66796875 2.87890625 C-7.66796875 2.21890625 -7.66796875 1.55890625 -7.66796875 0.87890625 C-4.68926498 -0.11399501 -3.0761399 -0.17633923 0 0 Z " fill="#80A2A3" transform="translate(138.66796875,110.12109375)"/>
<path d="M0 0 C2.64 0.66 5.28 1.32 8 2 C8 3.65 8 5.3 8 7 C6.35 6.67 4.7 6.34 3 6 C3 5.34 3 4.68 3 4 C2.01 3.67 1.02 3.34 0 3 C0 2.01 0 1.02 0 0 Z " fill="#133E3D" transform="translate(156,105)"/>
<path d="M0 0 C1.32 0.33 2.64 0.66 4 1 C1.73595458 2.36680153 -0.53501021 3.71844445 -2.8125 5.0625 C-3.45509766 5.45244141 -4.09769531 5.84238281 -4.75976562 6.24414062 C-6.4628915 7.24130759 -8.22945858 8.12812687 -10 9 C-10.99 8.67 -11.98 8.34 -13 8 C-12.360625 7.896875 -11.72125 7.79375 -11.0625 7.6875 C-10.381875 7.460625 -9.70125 7.23375 -9 7 C-8.67 6.01 -8.34 5.02 -8 4 C-7.01 4.33 -6.02 4.66 -5 5 C-4.67 4.01 -4.34 3.02 -4 2 C-2.68 2 -1.36 2 0 2 C0 1.34 0 0.68 0 0 Z " fill="#79999A" transform="translate(105,88)"/>
<path d="M0 0 C0 3.3645241 -0.38101977 5.05639958 -2 8 C-5.125 9.8125 -5.125 9.8125 -8 11 C-7.43040847 7.37386801 -6.07625466 5.74482259 -3.4375 3.25 C-2.79683594 2.63640625 -2.15617187 2.0228125 -1.49609375 1.390625 C-1.00238281 0.93171875 -0.50867188 0.4728125 0 0 Z " fill="#3F6564" transform="translate(102,67)"/>
<path d="M0 0 C0.66 0.33 1.32 0.66 2 1 C1.46968862 5.5076467 -0.25221116 8.41954788 -3 12 C-3.66 12 -4.32 12 -5 12 C-4.46231128 8.1286412 -3.422527 6.02815875 -1 3 C-0.67 2.01 -0.34 1.02 0 0 Z " fill="#426062" transform="translate(92,136)"/>
<path d="M0 0 C4.571279 0.54855348 8.67435795 1.41744803 13 3 C13 3.33 13 3.66 13 4 C10.36 3.67 7.72 3.34 5 3 C5 3.66 5 4.32 5 5 C3.0625 4.1875 3.0625 4.1875 1 3 C0.67 2.01 0.34 1.02 0 0 Z " fill="#B3C9C9" transform="translate(20,83)"/>
<path d="M0 0 C2.9375 1.25 2.9375 1.25 6 3 C6.33 4.32 6.66 5.64 7 7 C2.545 6.01 2.545 6.01 -2 5 C-0.68 4.34 0.64 3.68 2 3 C1.34 2.67 0.68 2.34 0 2 C0 1.34 0 0.68 0 0 Z " fill="#AABCBC" transform="translate(171,111)"/>
<path d="M0 0 C1.32 0.99 2.64 1.98 4 3 C3 5 3 5 1 8 C0.34 8 -0.32 8 -1 8 C-1.04241723 5.66705225 -1.04092937 3.33297433 -1 1 C-0.67 0.67 -0.34 0.34 0 0 Z " fill="#063535" transform="translate(88,136)"/>
<path d="M0 0 C-1.375 1.5 -1.375 1.5 -3 3 C-3.66 3 -4.32 3 -5 3 C-5 3.66 -5 4.32 -5 5 C-6.32 4.67 -7.64 4.34 -9 4 C-8.67 3.01 -8.34 2.02 -8 1 C-5.29120665 -0.35439668 -2.99066732 -0.06501451 0 0 Z " fill="#2C5554" transform="translate(41,89)"/>
<path d="M0 0 C2.00720923 0.28674418 4.0085944 0.61866701 6 1 C5.67 1.66 5.34 2.32 5 3 C1.9375 3.625 1.9375 3.625 -1 4 C-1 1 -1 1 0 0 Z " fill="#154948" transform="translate(98,75)"/>
<path d="M0 0 C2.375 0.3125 2.375 0.3125 5 1 C5.66 1.99 6.32 2.98 7 4 C5.35 4.33 3.7 4.66 2 5 C1.34 3.35 0.68 1.7 0 0 Z " fill="#10403F" transform="translate(37,90)"/>
<path d="M0 0 C0.99 0.33 1.98 0.66 3 1 C3 1.66 3 2.32 3 3 C4.175625 3.185625 4.175625 3.185625 5.375 3.375 C8 4 8 4 10 6 C6.28111761 5.49287967 3.26545761 4.88391785 0 3 C0 2.01 0 1.02 0 0 Z " fill="#769596" transform="translate(36,92)"/>
<path d="M0 0 C0.33 0.66 0.66 1.32 1 2 C-0.25 5.5625 -0.25 5.5625 -2 9 C-2.99 9.33 -3.98 9.66 -5 10 C-3.66511872 6.40608886 -2.03977277 3.24509304 0 0 Z " fill="#517375" transform="translate(111,53)"/>
</svg>
